<svg width="338" height="178" viewBox="0 0 338 178" fill="none" xmlns="http://www.w3.org/2000/svg">
<rect width="338" height="178" fill="white"/>
<path d="M45.3822 120.601C45.3822 120.99 45.6335 121.357 46.1135 121.7C48.8787 123.782 59.3456 125.338 71.8463 125.338C75.3429 125.338 78.6795 125.223 81.7418 124.995C91.4545 124.285 98.3105 122.592 98.3105 120.601C98.3105 118.611 91.4773 116.918 81.8104 116.208C78.7252 115.98 75.3657 115.865 71.8463 115.865C57.243 115.865 45.3822 117.993 45.3822 120.601Z" fill="#E5EAF2"/>
<path d="M70.2479 55.2092C72.7846 56.6964 74.0187 56.3303 74.59 55.3464C75.1842 54.3397 74.8871 53.1041 72.3504 51.6169C67.734 48.8941 64.4432 49.3975 64.4432 49.3975C64.4432 49.3975 65.563 52.4406 70.2479 55.2092Z" fill="#C6D3ED"/>
<path d="M70.3843 74.2918C72.3039 76.5341 73.5837 76.5798 74.4521 75.8248C75.3205 75.0697 75.4577 73.7884 73.538 71.569C70.0415 67.4963 66.7734 66.9014 66.7734 66.9014C66.7734 66.9014 66.842 70.1733 70.3843 74.2918Z" fill="#C6D3ED"/>
<path d="M71.5507 123.988L72.0992 123.942C72.0992 123.851 71.3908 115.225 74.2931 102.595C76.967 90.926 83.3431 73.3767 98.4948 55.9418L98.0834 55.5757C82.8403 73.1021 76.4413 90.7658 73.7447 102.481C70.8423 115.225 71.5507 123.92 71.5507 123.988Z" fill="#C6D3ED"/>
<path d="M83.1605 77.5865L83.6404 77.2891C72.7393 60.2432 79.2983 39.5135 79.3668 39.3076L78.8412 39.1245C78.7498 39.3533 72.0994 60.3118 83.1605 77.5865Z" fill="#C6D3ED"/>
<path d="M91.5467 68.5486C97.2143 68.5486 101.488 65.7114 101.534 65.6886L101.214 65.231C101.168 65.2767 95.6831 68.8918 88.9871 67.7936L88.8957 68.3427C89.8098 68.48 90.6782 68.5486 91.5467 68.5486Z" fill="#C6D3ED"/>
<path d="M72.4872 111.426C83.9368 110.122 93.1923 104.539 100.048 94.8152C100.277 94.472 100.505 94.1517 100.574 94.1059C100.574 94.1059 100.551 94.1288 100.505 94.1288L100.323 93.6025C100.163 93.6483 100.071 93.7856 99.5684 94.4949C92.8267 104.082 83.6854 109.573 72.3958 110.854L72.4872 111.426Z" fill="#C6D3ED"/>
<path d="M88.6677 105.432L89.2162 105.295C87.2508 97.9959 92.0956 87.2421 92.1642 87.1277L91.6614 86.8989C91.6386 86.9218 90.4045 89.6675 89.399 93.3054C88.4848 96.6689 87.6164 101.497 88.6677 105.432Z" fill="#C6D3ED"/>
<path d="M98.8827 52.8527C95.9346 55.5068 95.6833 56.9941 96.4603 57.8635C97.2373 58.7101 98.7456 58.6186 101.694 55.9644C107.064 51.1138 108.253 47.2241 108.253 47.2241C108.253 47.2241 104.322 47.9334 98.8827 52.8527Z" fill="#C6D3ED"/>
<path d="M100.026 63.8579C96.4148 65.5053 95.7292 66.8553 96.2091 67.9078C96.6891 68.9603 98.1517 69.3264 101.762 67.679C108.344 64.6816 110.652 61.3182 110.652 61.3182C110.652 61.3182 106.699 60.8148 100.026 63.8579Z" fill="#C6D3ED"/>
<path d="M90.496 85.297C89.1477 87.9054 89.5819 89.1181 90.6103 89.6443C91.6387 90.1706 92.8728 89.8273 94.2211 87.1961C96.6664 82.4141 96.0037 79.165 96.0037 79.165C96.0037 79.165 92.987 80.4692 90.496 85.297Z" fill="#C6D3ED"/>
<path d="M85.8336 59.6481C85.1709 62.5081 85.8793 63.5835 86.9992 63.8581C88.119 64.1326 89.2388 63.492 89.9015 60.609C91.1356 55.3923 89.673 52.3721 89.673 52.3721C89.673 52.3721 87.0906 54.3627 85.8336 59.6481Z" fill="#C6D3ED"/>
<path d="M81.309 102.48C81.469 105.432 82.4517 106.255 83.5943 106.187C84.737 106.118 85.6283 105.203 85.4683 102.251C85.1712 96.8974 82.9545 94.4263 82.9545 94.4263C82.9545 94.4263 81.0119 97.0347 81.309 102.48Z" fill="#C6D3ED"/>
<path d="M97.5348 94.3348C95.6608 96.5999 95.8208 97.8812 96.7121 98.6134C97.6033 99.3456 98.8831 99.2769 100.757 97.0118C104.185 92.8704 104.231 89.5527 104.231 89.5527C104.231 89.5527 101.008 90.1248 97.5348 94.3348Z" fill="#C6D3ED"/>
<path d="M77.6522 36.8821C76.7381 40.7489 77.3552 42.1217 78.475 42.3734C79.5948 42.648 80.7832 41.7099 81.6973 37.8431C83.3885 30.7959 82.1544 26.9062 82.1544 26.9062C82.1544 26.9062 79.3663 29.7434 77.6522 36.8821Z" fill="#C6D3ED"/>
<path d="M71.1609 124.743C71.1609 124.743 85.6727 70.5166 100.23 75.024C114.788 79.5086 82.4732 109.207 78.7482 125.109L71.1609 124.743Z" fill="#A8BAE0"/>
<path d="M73.2859 122.295C73.2859 122.295 95.4994 78.7762 109.348 85.2743C123.198 91.7723 86.7694 111.106 80.7818 123.988L73.2859 122.295Z" fill="#A8BAE0"/>
<path d="M77.5595 123.324C85.1469 106.187 105.166 91.246 105.372 91.0859L105.006 90.5825C104.801 90.7427 84.6441 105.775 76.9882 123.05L77.5595 123.324Z" fill="white"/>
<path d="M27.3507 84.8624C27.4878 85.1598 27.6021 85.4802 27.7392 85.7776C28.6534 87.814 29.8646 89.8046 31.1901 91.5206C32.6984 93.4425 32.9955 95.5476 32.8812 97.6754C32.8812 97.7441 32.8812 97.7898 32.8812 97.8585C32.6755 101.016 31.6014 104.173 32.1956 106.85C32.2413 107.034 32.287 107.217 32.3556 107.422C32.8355 108.887 33.8868 110.191 36.0121 111.244C43.1195 114.721 44.2622 114.447 44.902 117.49C44.9478 117.673 44.9706 117.856 45.0163 118.062C45.1077 118.634 45.1991 119.32 45.3363 120.167C45.3363 120.167 45.1991 121.105 46.1133 121.7C48.5814 123.553 57.1514 124.995 67.801 125.269C68.0067 125.269 68.1895 125.269 68.3952 125.292C69.5379 125.315 70.6806 125.338 71.8689 125.338C75.3655 125.338 78.702 125.223 81.7644 124.995C82.5185 123.027 83.2499 119.824 81.833 116.231C81.3073 114.904 80.5075 113.554 79.3191 112.182C72.943 104.906 67.8239 106.187 69.0351 93.2824C69.058 93.1451 69.058 92.9849 69.0808 92.8477C69.1037 92.7333 69.1037 92.596 69.1265 92.4816C70.612 78.7304 52.0551 84.6793 47.3931 80.0346C42.7538 75.3899 39.6001 70.1731 31.2358 72.2324C25.3168 73.6281 25.1339 79.3024 27.3507 84.8624Z" fill="#A8BAE0"/>
<path d="M28.6768 73.7883C35.6699 79.9203 41.4747 85.8463 46.2739 91.3605C46.4339 91.5435 46.5938 91.7266 46.7309 91.8867C53.7698 100.009 58.6147 107.217 61.8827 112.891C61.9741 113.051 62.0655 113.211 62.157 113.371C65.6992 119.572 67.2989 123.828 67.7789 125.269C67.9845 125.269 68.1674 125.269 68.373 125.292C67.7103 123.279 64.1223 113.463 53.8383 99.8033C53.7241 99.6432 53.6098 99.5059 53.4955 99.3457C47.6679 91.6579 39.7378 82.7803 29.0425 73.3765L28.6768 73.7883Z" fill="white"/>
<path d="M58.135 95.9364C65.7451 95.6618 69.1045 93.1907 69.2416 93.0992L68.8988 92.6416C68.876 92.6645 65.5165 95.1127 58.0892 95.3644L58.135 95.9364Z" fill="white"/>
<path d="M53.5187 99.9408C56.5353 98.8197 59.0263 95.6164 60.6946 90.6972C61.9516 87.0134 62.3172 83.6042 62.3172 83.5813L61.7687 83.5127C61.7459 83.65 60.2833 96.8291 53.3358 99.4146L53.5187 99.9408Z" fill="white"/>
<path d="M45.4747 91.9327C46.3431 91.9327 46.8687 91.8869 46.8916 91.8869L46.8459 91.3378C46.7316 91.3378 35.8992 92.3445 27.4206 84.7939L27.0549 85.2058C33.8881 91.2691 42.2067 91.9327 45.4747 91.9327Z" fill="white"/>
<path d="M32.9502 98.2473C36.7896 97.6982 39.212 95.9592 40.5604 94.5864C42.023 93.0992 42.5943 91.7721 42.6172 91.7035L42.0915 91.4976C42.0687 91.5433 39.8976 96.6685 32.8817 97.6981L32.9502 98.2473Z" fill="white"/>
<path d="M48.0803 118.314C56.3761 118.314 62.3865 113.211 62.455 113.143L62.0894 112.731C62.0208 112.8 54.5707 119.115 44.8808 117.49L44.7894 118.039C45.9092 118.222 47.0062 118.314 48.0803 118.314Z" fill="white"/>
<path d="M56.3068 116.438L56.7867 116.14C55.1413 113.486 51.2791 109.917 42.2977 108.018C36.95 106.874 32.2423 106.874 32.1966 106.874V107.423C32.3565 107.423 50.7534 107.537 56.3068 116.438Z" fill="white"/>
<g opacity="0.5">
<path d="M162.04 178C72.5477 178 0 171.025 0 162.421C0 153.818 72.5477 146.843 162.04 146.843C251.532 146.843 324.08 153.818 324.08 162.421C324.08 171.025 251.532 178 162.04 178Z" fill="white"/>
</g>
<path d="M253.579 109.163C253.579 109.163 274.033 18.9908 302.463 24.4592C330.892 29.9277 273.073 82.3925 268.091 108.797L253.579 109.163Z" fill="#A8BAE0"/>
<path d="M261.715 109.025C264.823 90.7209 274.468 72.0733 281.986 59.6492C290.145 46.1726 297.687 36.9289 297.755 36.8374L297.184 36.3569C297.115 36.4485 289.551 45.7379 281.346 59.2603C273.782 71.753 264.092 90.4921 260.984 108.888L261.715 109.025Z" fill="white"/>
<path d="M324.435 89.8513C313.557 99.484 326.126 117.102 310.083 121.541C294.018 125.98 294.68 124.424 291.344 134.377C291.344 134.377 292.669 142.751 286.979 145.931C269.085 155.884 266.319 137.946 245.271 133.988C239.375 132.889 233.776 131.608 228.703 130.281C228.04 126.735 227.857 121.083 231.377 115.477C232.656 113.418 234.462 111.359 236.907 109.437C250.208 98.9577 258.503 103.122 260.355 79.4636C262.206 55.8052 291.618 71.7071 300.896 65.3464C310.198 58.9856 317.168 51.2063 330.583 57.2924C343.975 63.3558 335.313 80.2186 324.435 89.8513Z" fill="#A8BAE0"/>
<path d="M251.739 135.315L250.893 134.88C251.076 134.514 270.593 96.7845 333.942 59.2148L334.422 60.0385C271.324 97.4709 251.945 134.949 251.739 135.315Z" fill="white"/>
<path d="M277.769 88.0444C265.017 85.1615 260.149 79.9447 259.944 79.7388L260.652 79.0981C260.698 79.1439 265.566 84.3149 277.998 87.1292L277.769 88.0444Z" fill="white"/>
<path d="M284.282 96.2353C279.551 93.3753 276.375 87.1976 275.118 78.3657C274.181 71.7533 274.638 65.9187 274.638 65.8501L275.598 65.9187C275.575 66.1475 273.907 88.8221 284.785 95.3888L284.282 96.2353Z" fill="white"/>
<path d="M300.371 85.2758C298.886 85.0013 298.04 84.7496 297.995 84.7496L298.269 83.8344C298.452 83.8801 316.414 88.9825 333.075 78.938L333.577 79.7617C320.14 87.8613 305.879 86.3283 300.371 85.2758Z" fill="white"/>
<path d="M319.5 99.8962C313.215 97.7454 309.696 94.0617 307.845 91.3389C305.834 88.3644 305.331 85.9391 305.308 85.8476L306.245 85.6646C306.268 85.7561 308.302 95.0913 319.82 99.0267L319.5 99.8962Z" fill="white"/>
<path d="M224.83 19.9287C226.612 21.0498 227.504 20.821 227.938 20.1117C228.372 19.4024 228.212 18.5101 226.429 17.3889C223.184 15.3526 220.83 15.6271 220.83 15.6271C220.83 15.6271 221.562 17.8465 224.83 19.9287Z" fill="#C6D3ED"/>
<path d="M229.652 37.1351C231.137 37.5241 231.709 37.158 231.869 36.586C232.029 35.9911 231.709 35.4191 230.2 35.0301C227.481 34.3208 225.904 35.053 225.904 35.053C225.904 35.053 226.887 36.4258 229.652 37.1351Z" fill="#C6D3ED"/>
<path d="M224.213 69.1219L224.601 69.099C224.601 69.0304 224.281 62.8526 226.635 53.8835C228.806 45.6008 233.765 33.1996 244.986 21.0959L244.689 20.8213C233.4 32.9937 228.418 45.4635 226.247 53.792C223.916 62.8298 224.213 69.0532 224.213 69.1219Z" fill="#C6D3ED"/>
<path d="M233.559 36.2199L233.902 36.0139C226.498 23.5899 231.662 8.9235 231.708 8.78622L231.342 8.64893C231.274 8.78621 226.04 23.6127 233.559 36.2199Z" fill="#C6D3ED"/>
<path d="M239.753 29.9275C243.798 30.0648 246.906 28.12 246.952 28.0971L246.746 27.7539C246.7 27.7768 242.701 30.2479 237.947 29.3098L237.879 29.6987C238.519 29.8589 239.136 29.9275 239.753 29.9275Z" fill="#C6D3ED"/>
<path d="M225.172 60.1526C233.376 59.489 240.141 55.6909 245.237 48.9183C245.42 48.6895 245.58 48.4607 245.626 48.4149C245.626 48.4149 245.603 48.4378 245.58 48.4378L245.466 48.0488C245.351 48.0717 245.283 48.1861 244.917 48.6666C239.867 55.3477 233.216 59.0772 225.126 59.7407L225.172 60.1526Z" fill="#C6D3ED"/>
<path d="M236.874 56.2402L237.262 56.1486C236.005 50.8861 239.731 43.3127 239.776 43.2441L239.411 43.061C239.411 43.0839 238.451 45.0059 237.651 47.5914C236.92 49.9709 236.211 53.403 236.874 56.2402Z" fill="#C6D3ED"/>
<path d="M245.352 18.8992C243.18 20.7296 242.975 21.7821 243.5 22.4227C244.026 23.0634 245.1 23.0176 247.271 21.1872C251.225 17.8467 252.162 15.0781 252.162 15.0781C252.162 15.0781 249.351 15.49 245.352 18.8992Z" fill="#C6D3ED"/>
<path d="M245.923 26.7929C243.295 27.8912 242.792 28.8292 243.112 29.5843C243.432 30.3394 244.461 30.6368 247.089 29.5386C251.865 27.548 253.579 25.1913 253.579 25.1913C253.579 25.1913 250.768 24.7565 245.923 26.7929Z" fill="#C6D3ED"/>
<path d="M238.633 41.894C237.605 43.7244 237.902 44.6167 238.61 45.0057C239.319 45.3947 240.21 45.1887 241.238 43.3354C243.112 39.972 242.701 37.6382 242.701 37.6382C242.701 37.6382 240.507 38.4848 238.633 41.894Z" fill="#C6D3ED"/>
<path d="M235.891 23.4524C235.343 25.4888 235.823 26.2667 236.623 26.4726C237.422 26.6786 238.222 26.2438 238.771 24.2304C239.753 20.5237 238.794 18.3501 238.794 18.3501C238.794 18.3501 236.897 19.7 235.891 23.4524Z" fill="#C6D3ED"/>
<path d="M231.663 53.9521C231.708 56.0571 232.394 56.6749 233.217 56.652C234.039 56.6291 234.702 55.9884 234.656 53.8834C234.565 50.0395 233.034 48.2319 233.034 48.2319C233.034 48.2319 231.571 50.0624 231.663 53.9521Z" fill="#C6D3ED"/>
<path d="M243.455 48.5068C242.061 50.0855 242.153 51.0007 242.77 51.5499C243.387 52.099 244.301 52.0761 245.695 50.4974C248.232 47.6144 248.346 45.2349 248.346 45.2349C248.346 45.2349 246.038 45.5781 243.455 48.5068Z" fill="#C6D3ED"/>
<path d="M230.543 7.00143C229.789 9.74708 230.223 10.7309 231.023 10.9597C231.823 11.1885 232.691 10.5479 233.445 7.80224C234.817 2.8143 234.017 0 234.017 0C234.017 0 231.914 1.94485 230.543 7.00143Z" fill="#C6D3ED"/>
<path d="M225.151 168.08C225.219 168.034 226.933 166.89 227.185 165.448C227.276 164.922 227.162 164.419 226.819 163.961C226.568 163.618 226.225 163.435 225.836 163.435C224.579 163.458 223.025 165.311 222.363 166.158C222.454 165.288 222.5 163.618 221.723 162.954C221.357 162.634 220.854 162.588 220.214 162.794C219.575 163 219.14 163.412 218.912 163.984C218.249 165.563 219.392 167.897 219.437 168.011L219.689 167.897C219.689 167.874 218.569 165.563 219.186 164.098C219.392 163.618 219.78 163.275 220.329 163.069C220.854 162.886 221.266 162.932 221.563 163.183C222.5 163.984 222.043 166.638 222.02 166.661L221.906 167.279L222.271 166.753C222.294 166.73 224.397 163.709 225.859 163.709C226.179 163.709 226.408 163.847 226.613 164.121C226.91 164.51 227.002 164.945 226.933 165.403C226.705 166.707 225.037 167.828 225.014 167.851L225.151 168.08Z" fill="#E5EAF2"/>
<path d="M337.977 174.417C338 174.143 337.931 173.914 337.749 173.731C337.337 173.319 336.492 173.205 335.806 173.182C336.629 172.884 337.726 172.404 337.954 171.763C338.046 171.512 338 171.26 337.817 171.031C336.812 169.681 333.452 171.855 333.292 171.946L333.452 172.175C334.366 171.58 336.88 170.23 337.589 171.191C337.703 171.351 337.726 171.512 337.68 171.672C337.429 172.404 335.463 173.022 334.732 173.205L334.778 173.479C334.801 173.479 336.903 173.273 337.543 173.914C337.68 174.051 337.726 174.189 337.703 174.372L337.977 174.417Z" fill="#E5EAF2"/>
<path d="M251.203 167.393L251.477 167.37C251.454 167.187 251.5 167.027 251.637 166.913C252.163 166.386 253.808 166.409 254.402 166.478L254.448 166.203C253.717 166.02 251.774 165.403 251.5 164.67C251.454 164.51 251.477 164.35 251.592 164.19C252.3 163.229 254.814 164.579 255.728 165.174L255.888 164.945C255.751 164.853 252.369 162.657 251.363 164.03C251.18 164.259 251.134 164.51 251.226 164.762C251.454 165.38 252.529 165.883 253.374 166.181C252.688 166.203 251.82 166.318 251.432 166.73C251.249 166.89 251.18 167.119 251.203 167.393Z" fill="#E5EAF2"/>
<path d="M116.825 112.241C117.398 113.597 122.855 114.848 130.949 115.951C132.382 116.146 133.883 116.341 135.465 116.525C163.036 119.775 238.526 121.59 243.18 120.637C249.612 119.316 262.405 54.5286 262.405 54.5286C262.405 54.5286 224.723 53.8739 194.803 53.5524C184.565 53.449 148.958 53.1733 142.355 53.1733C132.141 53.1733 115.908 110.059 116.825 112.241Z" fill="#F2F7FC"/>
<path d="M127.258 103.926C127.258 103.926 138.825 59.5361 139.662 55.8034C140.029 54.1381 141.176 53.5409 142.333 53.3801C140.304 53.1848 138.825 53.1733 138.825 53.1733C134.825 53.1733 131.271 55.8723 129.987 59.8806C127.19 68.6323 121.618 85.435 116.391 101.859C116.654 101.859 127.258 103.926 127.258 103.926Z" fill="white"/>
<path d="M57.1439 143.469C58.9896 154.61 71.0496 161.696 83.4192 161.696H107.929L106.026 97.3681C106.026 97.3681 82.6282 89.7305 76.7587 96.4493C71.6114 102.341 57.6598 125.667 56.9261 139.461C56.8573 140.851 56.9376 142.183 57.1439 143.469Z" fill="white"/>
<path d="M122.202 103.662C122.202 103.662 89.1405 87.7663 82.8812 98.1488C79.5567 103.662 70.4085 125.656 69.7321 139.461C69.0786 152.875 81.4138 161.696 94.1044 161.696H116.642L122.202 103.662Z" fill="#C6D3ED"/>
<path d="M78.6387 150.624C79.0056 150.923 79.3839 151.21 79.7622 151.486C84.5427 155.012 90.7676 157.814 97.8867 159.56C103.275 160.869 109.167 161.581 115.335 161.524H126.054H126.203L176.93 161.535L206.003 161.547H206.427V161.535L207.436 156.252L216.641 102.938C216.641 102.938 89.2314 100.067 78.868 105.993C74.0532 108.738 71.3248 120.143 69.8115 132.696C69.0205 139.369 72.4253 145.64 78.6387 150.624Z" fill="#F2F7FC"/>
<path opacity="0.5" d="M78.6391 150.625C79.006 150.923 79.3843 151.21 79.7626 151.486C84.543 155.012 90.7679 157.814 97.887 159.56C103.275 160.869 109.168 161.581 115.335 161.524H126.054H126.203L176.931 161.535L206.003 161.547L206.439 161.535L207.448 156.252C189.621 152.807 164.962 149.292 139.237 149.568C114.67 149.821 94.0925 149.786 78.6391 150.625Z" fill="#C6D3ED"/>
<path d="M149.016 54.115C149.269 54.0346 149.624 53.8279 149.934 53.6442H143.227C143.227 53.6442 145.806 52.1855 147.48 51.439C149.154 50.6925 153.258 51.439 153.258 51.439C153.258 51.439 168.436 49.1764 176.954 49.3832C179.235 49.4406 195.48 46.7875 200.157 47.7293C202.622 48.2232 204.857 48.6137 206.29 48.8549C207.173 48.9927 207.987 48.361 208.056 47.4767V47.4652C208.319 44.3872 208.709 42.6644 208.709 42.6644L214.418 39.8965C215.599 40.5282 216.699 41.1139 217.284 41.424C217.261 41.7456 217.238 42.0557 217.227 42.3543C217.169 43.9278 217.341 45.3289 217.616 46.5578C218.132 48.8204 219.886 50.6006 222.133 51.1978L222.156 51.2093C217.88 54.9075 196.087 61.3392 195.72 59.4556C195.227 56.9174 153.258 53.6442 153.258 53.6442C153.258 53.6442 152.089 54.0921 151.802 54.5055C151.516 54.919 149.165 54.8616 148.73 54.9305C148.283 54.9879 148.501 54.2758 149.016 54.115Z" fill="#FFD5CC"/>
<path d="M134.124 147.455C134.124 147.455 129.699 155.448 127.739 156.356C126.18 157.068 121.961 157.78 119.622 159.594C116.894 161.696 121.617 161.581 122.649 161.581C122.649 161.581 127.922 160.95 130.421 161.007C131.866 161.041 136.153 161.581 136.153 161.581C139.535 161.581 142.115 158.503 141.473 155.173C141.461 155.138 141.461 155.115 141.45 155.081C140.842 151.991 140.361 148.006 140.361 148.006L134.124 147.455Z" fill="#283252"/>
<path d="M189.289 52.4496C189.381 54.5284 189.965 56.8139 191.811 58.0084C194.734 59.9034 193.989 64.8535 193.978 66.806L206.473 48.8777C206.473 48.8777 203.011 47.9934 198.861 47.534C196.339 47.2583 189.702 48.0164 189.702 48.0164C189.702 48.0164 189.174 50.1066 189.289 52.4496Z" fill="#C6D3ED"/>
<path d="M153.452 150.578C153.452 150.578 149.039 155.448 147.078 156.344C145.68 156.987 141.908 157.366 139.661 158.997C137.288 160.72 139.111 161.57 140.487 161.57C140.487 161.57 146.792 162.075 150.804 160.938C151.893 160.628 154.897 161.248 155.963 161.478C156.284 161.547 158.347 161.719 158.68 161.673C161.133 161.363 161.236 159.009 161.007 156.482C160.961 156.011 160.904 155.54 160.812 155.069C160.204 151.98 159.826 149.108 159.826 149.108L153.452 150.578Z" fill="#283252"/>
<path d="M131.716 148.579C131.716 148.579 133.31 149.693 134.708 150.164C136.909 150.899 141.025 150.555 141.025 150.555C141.025 150.555 151.526 130.146 153.738 124.989C155.836 120.096 157.602 109.369 157.602 109.369C159.207 109.277 171.198 110.989 181.733 109.84C187.339 109.231 192.085 107.842 193.69 105.005C198.322 96.8389 183.533 87.7197 183.533 87.7197C183.533 87.7197 154.61 92.9455 148.259 97.5625C142.229 101.961 131.716 148.579 131.716 148.579Z" fill="#1D60AD"/>
<path d="M151.882 150.337C151.882 150.337 154.129 151.52 155.585 151.761C158.233 152.209 161.076 151.325 161.076 151.325C161.076 151.325 162.692 141.551 169.307 125.909C170.969 121.981 170.717 113.941 170.935 113.838C170.935 113.838 207.115 114.148 211.311 106.005C211.987 104.684 212.755 100.963 212.664 99.7569C212.228 93.3253 203.882 90.833 203.882 90.833C203.882 90.833 166.166 97.5173 159.7 101.974C153.235 106.43 151.882 150.337 151.882 150.337Z" fill="#1D60AD"/>
<path d="M180.484 87.3184C182.685 91.2463 184.966 94.3587 193.381 95.8173C203.985 97.6549 209.786 99.906 212.732 100.79C214.979 101.468 221.433 93.2332 224.505 85.8712C227.486 78.7505 230.019 67.6558 230.042 66.7945C230.306 53.5751 220.275 50.4052 220.275 50.3708C220.275 50.3708 212.824 55.4472 208.765 53.6785C204.764 51.9442 206.415 48.9466 206.461 48.8662L195.708 59.444C195.708 59.444 193.289 68.724 190.366 75.4657C185.952 85.676 179.888 86.2388 180.484 87.3184Z" fill="#C6D3ED"/>
<path d="M208.697 42.6644C208.697 42.6644 208.319 44.3872 208.044 47.4652C212.893 47.3044 216.733 42.2739 216.756 41.9523C216.172 41.6422 215.587 40.5282 214.406 39.8965L208.697 42.6644Z" fill="#F6C3B3"/>
<path d="M207.562 45.7537C207.562 45.7537 217.765 45.4665 217.479 39.1038C217.203 32.741 218.327 28.4226 211.804 28.3422C205.281 28.2618 204.123 30.7426 203.699 32.8903C203.286 35.0266 204.903 45.6618 207.562 45.7537Z" fill="#FFD5CC"/>
<path d="M216.94 41.6767C216.94 41.6767 217.341 39.5635 216.206 38.1623C216.206 38.1623 216.951 36.095 216.16 35.6241C215.369 35.1532 214.945 36.9219 214.601 36.5888C214.257 36.2558 212.721 34.6823 212.251 32.6035C211.781 30.5362 204.708 31.9833 203.871 32.236C203.733 32.2819 203.55 32.2704 203.343 32.213C201.567 31.7536 201.039 29.4566 202.415 28.2392C202.495 28.1702 202.575 28.0899 202.644 28.0209C203.389 27.2629 208.605 22.175 214.555 24.6443C220.505 27.1136 220.952 30.1916 220.253 32.6724C219.542 35.1532 219.588 41.1714 216.94 41.6767Z" fill="#283252"/>
<path d="M227.52 57.7097C227.52 57.7097 229.274 61.2012 227.635 67.5869C224.402 80.1746 211.425 90.4078 209.545 89.4546C207.676 88.5128 202.747 88.6506 205.406 82.931C208.066 77.2 218.842 56.0903 218.842 56.0903L227.52 57.7097Z" fill="#FFD5CC"/>
<path d="M211.747 69.9991C215.14 71.8942 217.639 73.4217 222.844 73.3987C226.764 73.3872 229.986 72.6292 229.986 72.6292C229.986 72.6292 234.01 56.24 226.489 52.8634C223.898 51.7034 220.264 50.3711 220.264 50.3711C220.264 50.3711 205.659 66.5995 211.747 69.9991Z" fill="#C6D3ED"/>
<path d="M185.048 84.3322C185.048 84.3322 203.184 82.3913 205.625 82.4831C208.056 82.575 210.532 89.133 210.188 89.4776C209.844 89.8221 202.542 90.1782 198.036 89.8566C193.084 89.512 186.767 87.9041 186.767 87.9041L185.048 84.3322Z" fill="#FFD5CC"/>
<path d="M181.287 143.814C183.27 154.61 194.184 161.455 205.361 161.455H227.888L226.122 96.5527C226.122 96.5527 204.616 89.4779 199.217 96.2082C194.482 102.1 181.654 125.426 180.977 139.22C180.909 140.828 181.012 142.355 181.287 143.814Z" fill="white"/>
<path d="M255.974 161.696C261.626 161.661 267.702 160.444 272.299 156.987C276.77 153.622 279.418 148.511 281.034 143.251C284.474 132.018 284.382 119.706 284.004 108.072C283.602 95.4843 282.467 82.8851 281.012 70.3778C280.53 66.2432 280.392 60.9026 278.26 57.1814C276.586 54.2757 270.327 53.311 267.312 53.3799C264.802 53.4488 262.371 55.6195 260.25 56.8599C258.829 57.6983 257.407 58.5367 255.986 59.3751C254.599 60.1905 254.553 61.6147 254.071 63.1307C250.013 75.8562 246.024 88.6047 241.92 101.319C237.093 99.2858 232.187 97.4597 227.131 96.07C222.385 94.7722 216.951 93.4973 212.022 94.531C206.897 95.5991 205.338 100.549 203.47 104.868C200.993 110.587 198.85 116.456 197.084 122.44C195.365 128.251 193.645 134.557 193.783 140.678C193.909 146.191 196.431 151.302 200.512 154.954C205.717 159.629 212.56 161.684 219.416 161.684C231.602 161.696 243.788 161.696 255.974 161.696Z" fill="#C6D3ED"/>
<path d="M252.374 103.926C252.374 103.926 263.941 59.5361 264.778 55.8034C265.145 54.1381 266.291 53.5409 267.449 53.3801C265.42 53.1848 263.941 53.1733 263.941 53.1733C259.94 53.1733 256.386 55.8723 255.103 59.8806C252.305 68.6323 247.147 84.7574 241.919 101.193C242.171 101.181 252.374 103.926 252.374 103.926Z" fill="white"/>
<path d="M184.917 90.6774H210.97C210.97 89.5326 210.043 88.5913 208.888 88.5913H184.917V90.6774Z" fill="#283252"/>
<path d="M144.123 62.2607L153.785 90.6773H194.313L184.397 62.2607H144.123Z" fill="#283252"/>
<path d="M165.833 76.2021C166.087 77.2833 167.166 78.1737 168.246 78.1737C169.325 78.1737 170.01 77.296 169.757 76.2021C169.503 75.1209 168.423 74.2305 167.344 74.2305C166.265 74.2432 165.579 75.1209 165.833 76.2021Z" fill="#61A9FF"/>
<path d="M127.294 2.62061H163.096C165.951 2.62061 168.289 4.96299 168.289 7.82271V23.5584C168.289 26.1881 166.137 28.3293 163.527 28.3293H162.609L164.33 35.6295L153.486 28.3293H126.978C124.124 28.3293 121.8 25.987 121.8 23.1416V8.12449C121.8 5.09232 124.267 2.62061 127.294 2.62061Z" fill="#1D60AD"/>
<path d="M127.724 16.5454H160.357C160.801 16.5454 161.174 16.1718 161.174 15.7263V15.6975C161.174 15.252 160.801 14.8784 160.357 14.8784H127.724C127.279 14.8784 126.907 15.252 126.907 15.6975V15.7263C126.907 16.1718 127.279 16.5454 127.724 16.5454Z" fill="#F9F9F9"/>
<path d="M127.466 20.2819H142.054C142.355 20.2819 142.613 20.0376 142.613 19.7215V19.161C142.613 18.8593 142.369 18.6006 142.054 18.6006H127.466C127.165 18.6006 126.907 18.8449 126.907 19.161V19.7215C126.907 20.0376 127.165 20.2819 127.466 20.2819Z" fill="#F9F9F9"/>
<path d="M144.679 20.2817H157.388C157.675 20.2817 157.904 20.0518 157.904 19.7644V19.1321C157.904 18.8447 157.675 18.6147 157.388 18.6147H144.679C144.392 18.6147 144.163 18.8447 144.163 19.1321V19.7644C144.163 20.0518 144.392 20.2817 144.679 20.2817Z" fill="#F9F9F9"/>
<path d="M137.622 9.80571H149.326C149.771 9.80571 150.144 9.43208 150.144 8.9866C150.144 8.54111 149.771 8.16748 149.326 8.16748H137.622C137.177 8.16748 136.804 8.54111 136.804 8.9866C136.804 9.43208 137.163 9.80571 137.622 9.80571Z" fill="#F9F9F9"/>
<path d="M127.552 9.80571H134.595C134.953 9.80571 135.24 9.5183 135.24 9.15904V8.81415C135.24 8.45489 134.953 8.16748 134.595 8.16748H127.552C127.193 8.16748 126.907 8.45489 126.907 8.81415V9.15904C126.907 9.5183 127.193 9.80571 127.552 9.80571Z" fill="#F9F9F9"/>
</svg>
